<?xml version="1.0" encoding="utf-8" standalone="no"?>
<!DOCTYPE svg PUBLIC "-//W3C//DTD SVG 1.1//EN"
  "http://www.w3.org/Graphics/SVG/1.1/DTD/svg11.dtd">
<svg xmlns:xlink="http://www.w3.org/1999/xlink" width="648pt" height="486pt" viewBox="0 0 648 486" xmlns="http://www.w3.org/2000/svg" version="1.1">
 <metadata>
  <rdf:RDF xmlns:dc="http://purl.org/dc/elements/1.1/" xmlns:cc="http://creativecommons.org/ns#" xmlns:rdf="http://www.w3.org/1999/02/22-rdf-syntax-ns#">
   <cc:Work>
    <dc:type rdf:resource="http://purl.org/dc/dcmitype/StillImage"/>
    <dc:date>2023-04-09T10:35:25.053202</dc:date>
    <dc:format>image/svg+xml</dc:format>
    <dc:creator>
     <cc:Agent>
      <dc:title>Matplotlib v3.7.0, https://matplotlib.org/</dc:title>
     </cc:Agent>
    </dc:creator>
   </cc:Work>
  </rdf:RDF>
 </metadata>
 <defs>
  <style type="text/css">*{stroke-linejoin: round; stroke-linecap: butt}</style>
 </defs>
 <g id="figure_1">
  <g id="patch_1">
   <path d="M 0 486 
L 648 486 
L 648 0 
L 0 0 
z
" style="fill: #ffffff"/>
  </g>
  <g id="axes_1">
   <g id="patch_2">
    <path d="M 81 432.54 
L 583.2 432.54 
L 583.2 58.32 
L 81 58.32 
z
" style="fill: #eaeaf2"/>
   </g>
   <g id="matplotlib.axis_1">
    <g id="xtick_1">
     <g id="line2d_1">
      <path d="M 92.120979 432.54 
L 92.120979 58.32 
" clip-path="url(#p35a8b7d916)" style="fill: none; stroke: #ffffff; stroke-linecap: round"/>
     </g>
     <g id="text_1">
      <!-- 0.0M -->
      <g style="fill: #262626" transform="translate(77.449385 454.988313) scale(0.132 -0.132)">
       <defs>
        <path id="ArialMT-30" d="M 266 2259 
Q 266 3072 433 3567 
Q 600 4063 929 4331 
Q 1259 4600 1759 4600 
Q 2128 4600 2406 4451 
Q 2684 4303 2865 4023 
Q 3047 3744 3150 3342 
Q 3253 2941 3253 2259 
Q 3253 1453 3087 958 
Q 2922 463 2592 192 
Q 2263 -78 1759 -78 
Q 1097 -78 719 397 
Q 266 969 266 2259 
z
M 844 2259 
Q 844 1131 1108 757 
Q 1372 384 1759 384 
Q 2147 384 2411 759 
Q 2675 1134 2675 2259 
Q 2675 3391 2411 3762 
Q 2147 4134 1753 4134 
Q 1366 4134 1134 3806 
Q 844 3388 844 2259 
z
" transform="scale(0.015625)"/>
        <path id="ArialMT-2e" d="M 581 0 
L 581 641 
L 1222 641 
L 1222 0 
L 581 0 
z
" transform="scale(0.015625)"/>
        <path id="ArialMT-4d" d="M 475 0 
L 475 4581 
L 1388 4581 
L 2472 1338 
Q 2622 884 2691 659 
Q 2769 909 2934 1394 
L 4031 4581 
L 4847 4581 
L 4847 0 
L 4263 0 
L 4263 3834 
L 2931 0 
L 2384 0 
L 1059 3900 
L 1059 0 
L 475 0 
z
" transform="scale(0.015625)"/>
       </defs>
       <use xlink:href="#ArialMT-30"/>
       <use xlink:href="#ArialMT-2e" x="55.615234"/>
       <use xlink:href="#ArialMT-30" x="83.398438"/>
       <use xlink:href="#ArialMT-4d" x="139.013672"/>
      </g>
     </g>
    </g>
    <g id="xtick_2">
     <g id="line2d_2">
      <path d="M 185.771329 432.54 
L 185.771329 58.32 
" clip-path="url(#p35a8b7d916)" style="fill: none; stroke: #ffffff; stroke-linecap: round"/>
     </g>
     <g id="text_2">
      <!-- 0.2M -->
      <g style="fill: #262626" transform="translate(171.099735 454.988313) scale(0.132 -0.132)">
       <defs>
        <path id="ArialMT-32" d="M 3222 541 
L 3222 0 
L 194 0 
Q 188 203 259 391 
Q 375 700 629 1000 
Q 884 1300 1366 1694 
Q 2113 2306 2375 2664 
Q 2638 3022 2638 3341 
Q 2638 3675 2398 3904 
Q 2159 4134 1775 4134 
Q 1369 4134 1125 3890 
Q 881 3647 878 3216 
L 300 3275 
Q 359 3922 746 4261 
Q 1134 4600 1788 4600 
Q 2447 4600 2831 4234 
Q 3216 3869 3216 3328 
Q 3216 3053 3103 2787 
Q 2991 2522 2730 2228 
Q 2469 1934 1863 1422 
Q 1356 997 1212 845 
Q 1069 694 975 541 
L 3222 541 
z
" transform="scale(0.015625)"/>
       </defs>
       <use xlink:href="#ArialMT-30"/>
       <use xlink:href="#ArialMT-2e" x="55.615234"/>
       <use xlink:href="#ArialMT-32" x="83.398438"/>
       <use xlink:href="#ArialMT-4d" x="139.013672"/>
      </g>
     </g>
    </g>
    <g id="xtick_3">
     <g id="line2d_3">
      <path d="M 279.421678 432.54 
L 279.421678 58.32 
" clip-path="url(#p35a8b7d916)" style="fill: none; stroke: #ffffff; stroke-linecap: round"/>
     </g>
     <g id="text_3">
      <!-- 0.4M -->
      <g style="fill: #262626" transform="translate(264.750085 454.988313) scale(0.132 -0.132)">
       <defs>
        <path id="ArialMT-34" d="M 2069 0 
L 2069 1097 
L 81 1097 
L 81 1613 
L 2172 4581 
L 2631 4581 
L 2631 1613 
L 3250 1613 
L 3250 1097 
L 2631 1097 
L 2631 0 
L 2069 0 
z
M 2069 1613 
L 2069 3678 
L 634 1613 
L 2069 1613 
z
" transform="scale(0.015625)"/>
       </defs>
       <use xlink:href="#ArialMT-30"/>
       <use xlink:href="#ArialMT-2e" x="55.615234"/>
       <use xlink:href="#ArialMT-34" x="83.398438"/>
       <use xlink:href="#ArialMT-4d" x="139.013672"/>
      </g>
     </g>
    </g>
    <g id="xtick_4">
     <g id="line2d_4">
      <path d="M 373.072028 432.54 
L 373.072028 58.32 
" clip-path="url(#p35a8b7d916)" style="fill: none; stroke: #ffffff; stroke-linecap: round"/>
     </g>
     <g id="text_4">
      <!-- 0.6M -->
      <g style="fill: #262626" transform="translate(358.400434 454.988313) scale(0.132 -0.132)">
       <defs>
        <path id="ArialMT-36" d="M 3184 3459 
L 2625 3416 
Q 2550 3747 2413 3897 
Q 2184 4138 1850 4138 
Q 1581 4138 1378 3988 
Q 1113 3794 959 3422 
Q 806 3050 800 2363 
Q 1003 2672 1297 2822 
Q 1591 2972 1913 2972 
Q 2475 2972 2870 2558 
Q 3266 2144 3266 1488 
Q 3266 1056 3080 686 
Q 2894 316 2569 119 
Q 2244 -78 1831 -78 
Q 1128 -78 684 439 
Q 241 956 241 2144 
Q 241 3472 731 4075 
Q 1159 4600 1884 4600 
Q 2425 4600 2770 4297 
Q 3116 3994 3184 3459 
z
M 888 1484 
Q 888 1194 1011 928 
Q 1134 663 1356 523 
Q 1578 384 1822 384 
Q 2178 384 2434 671 
Q 2691 959 2691 1453 
Q 2691 1928 2437 2201 
Q 2184 2475 1800 2475 
Q 1419 2475 1153 2201 
Q 888 1928 888 1484 
z
" transform="scale(0.015625)"/>
       </defs>
       <use xlink:href="#ArialMT-30"/>
       <use xlink:href="#ArialMT-2e" x="55.615234"/>
       <use xlink:href="#ArialMT-36" x="83.398438"/>
       <use xlink:href="#ArialMT-4d" x="139.013672"/>
      </g>
     </g>
    </g>
    <g id="xtick_5">
     <g id="line2d_5">
      <path d="M 466.722378 432.54 
L 466.722378 58.32 
" clip-path="url(#p35a8b7d916)" style="fill: none; stroke: #ffffff; stroke-linecap: round"/>
     </g>
     <g id="text_5">
      <!-- 0.8M -->
      <g style="fill: #262626" transform="translate(452.050784 454.988313) scale(0.132 -0.132)">
       <defs>
        <path id="ArialMT-38" d="M 1131 2484 
Q 781 2613 612 2850 
Q 444 3088 444 3419 
Q 444 3919 803 4259 
Q 1163 4600 1759 4600 
Q 2359 4600 2725 4251 
Q 3091 3903 3091 3403 
Q 3091 3084 2923 2848 
Q 2756 2613 2416 2484 
Q 2838 2347 3058 2040 
Q 3278 1734 3278 1309 
Q 3278 722 2862 322 
Q 2447 -78 1769 -78 
Q 1091 -78 675 323 
Q 259 725 259 1325 
Q 259 1772 486 2073 
Q 713 2375 1131 2484 
z
M 1019 3438 
Q 1019 3113 1228 2906 
Q 1438 2700 1772 2700 
Q 2097 2700 2305 2904 
Q 2513 3109 2513 3406 
Q 2513 3716 2298 3927 
Q 2084 4138 1766 4138 
Q 1444 4138 1231 3931 
Q 1019 3725 1019 3438 
z
M 838 1322 
Q 838 1081 952 856 
Q 1066 631 1291 507 
Q 1516 384 1775 384 
Q 2178 384 2440 643 
Q 2703 903 2703 1303 
Q 2703 1709 2433 1975 
Q 2163 2241 1756 2241 
Q 1359 2241 1098 1978 
Q 838 1716 838 1322 
z
" transform="scale(0.015625)"/>
       </defs>
       <use xlink:href="#ArialMT-30"/>
       <use xlink:href="#ArialMT-2e" x="55.615234"/>
       <use xlink:href="#ArialMT-38" x="83.398438"/>
       <use xlink:href="#ArialMT-4d" x="139.013672"/>
      </g>
     </g>
    </g>
    <g id="xtick_6">
     <g id="line2d_6">
      <path d="M 560.372727 432.54 
L 560.372727 58.32 
" clip-path="url(#p35a8b7d916)" style="fill: none; stroke: #ffffff; stroke-linecap: round"/>
     </g>
     <g id="text_6">
      <!-- 1.0M -->
      <g style="fill: #262626" transform="translate(545.701134 454.988313) scale(0.132 -0.132)">
       <defs>
        <path id="ArialMT-31" d="M 2384 0 
L 1822 0 
L 1822 3584 
Q 1619 3391 1289 3197 
Q 959 3003 697 2906 
L 697 3450 
Q 1169 3672 1522 3987 
Q 1875 4303 2022 4600 
L 2384 4600 
L 2384 0 
z
" transform="scale(0.015625)"/>
       </defs>
       <use xlink:href="#ArialMT-31"/>
       <use xlink:href="#ArialMT-2e" x="55.615234"/>
       <use xlink:href="#ArialMT-30" x="83.398438"/>
       <use xlink:href="#ArialMT-4d" x="139.013672"/>
      </g>
     </g>
    </g>
    <g id="text_7">
     <!-- steps -->
     <g style="fill: #262626" transform="translate(314.892 471.919062) scale(0.144 -0.144)">
      <defs>
       <path id="ArialMT-73" d="M 197 991 
L 753 1078 
Q 800 744 1014 566 
Q 1228 388 1613 388 
Q 2000 388 2187 545 
Q 2375 703 2375 916 
Q 2375 1106 2209 1216 
Q 2094 1291 1634 1406 
Q 1016 1563 777 1677 
Q 538 1791 414 1992 
Q 291 2194 291 2438 
Q 291 2659 392 2848 
Q 494 3038 669 3163 
Q 800 3259 1026 3326 
Q 1253 3394 1513 3394 
Q 1903 3394 2198 3281 
Q 2494 3169 2634 2976 
Q 2775 2784 2828 2463 
L 2278 2388 
Q 2241 2644 2061 2787 
Q 1881 2931 1553 2931 
Q 1166 2931 1000 2803 
Q 834 2675 834 2503 
Q 834 2394 903 2306 
Q 972 2216 1119 2156 
Q 1203 2125 1616 2013 
Q 2213 1853 2448 1751 
Q 2684 1650 2818 1456 
Q 2953 1263 2953 975 
Q 2953 694 2789 445 
Q 2625 197 2315 61 
Q 2006 -75 1616 -75 
Q 969 -75 630 194 
Q 291 463 197 991 
z
" transform="scale(0.015625)"/>
       <path id="ArialMT-74" d="M 1650 503 
L 1731 6 
Q 1494 -44 1306 -44 
Q 1000 -44 831 53 
Q 663 150 594 308 
Q 525 466 525 972 
L 525 2881 
L 113 2881 
L 113 3319 
L 525 3319 
L 525 4141 
L 1084 4478 
L 1084 3319 
L 1650 3319 
L 1650 2881 
L 1084 2881 
L 1084 941 
Q 1084 700 1114 631 
Q 1144 563 1211 522 
Q 1278 481 1403 481 
Q 1497 481 1650 503 
z
" transform="scale(0.015625)"/>
       <path id="ArialMT-65" d="M 2694 1069 
L 3275 997 
Q 3138 488 2766 206 
Q 2394 -75 1816 -75 
Q 1088 -75 661 373 
Q 234 822 234 1631 
Q 234 2469 665 2931 
Q 1097 3394 1784 3394 
Q 2450 3394 2872 2941 
Q 3294 2488 3294 1666 
Q 3294 1616 3291 1516 
L 816 1516 
Q 847 969 1125 678 
Q 1403 388 1819 388 
Q 2128 388 2347 550 
Q 2566 713 2694 1069 
z
M 847 1978 
L 2700 1978 
Q 2663 2397 2488 2606 
Q 2219 2931 1791 2931 
Q 1403 2931 1139 2672 
Q 875 2413 847 1978 
z
" transform="scale(0.015625)"/>
       <path id="ArialMT-70" d="M 422 -1272 
L 422 3319 
L 934 3319 
L 934 2888 
Q 1116 3141 1344 3267 
Q 1572 3394 1897 3394 
Q 2322 3394 2647 3175 
Q 2972 2956 3137 2557 
Q 3303 2159 3303 1684 
Q 3303 1175 3120 767 
Q 2938 359 2589 142 
Q 2241 -75 1856 -75 
Q 1575 -75 1351 44 
Q 1128 163 984 344 
L 984 -1272 
L 422 -1272 
z
M 931 1641 
Q 931 1000 1190 694 
Q 1450 388 1819 388 
Q 2194 388 2461 705 
Q 2728 1022 2728 1688 
Q 2728 2322 2467 2637 
Q 2206 2953 1844 2953 
Q 1484 2953 1207 2617 
Q 931 2281 931 1641 
z
" transform="scale(0.015625)"/>
      </defs>
      <use xlink:href="#ArialMT-73"/>
      <use xlink:href="#ArialMT-74" x="50"/>
      <use xlink:href="#ArialMT-65" x="77.783203"/>
      <use xlink:href="#ArialMT-70" x="133.398438"/>
      <use xlink:href="#ArialMT-73" x="189.013672"/>
     </g>
    </g>
   </g>
   <g id="matplotlib.axis_2">
    <g id="ytick_1">
     <g id="line2d_7">
      <path d="M 81 368.806795 
L 583.2 368.806795 
" clip-path="url(#p35a8b7d916)" style="fill: none; stroke: #ffffff; stroke-linecap: round"/>
     </g>
     <g id="text_8">
      <!-- 0.2 -->
      <g style="fill: #262626" transform="translate(49.652 373.530951) scale(0.132 -0.132)">
       <use xlink:href="#ArialMT-30"/>
       <use xlink:href="#ArialMT-2e" x="55.615234"/>
       <use xlink:href="#ArialMT-32" x="83.398438"/>
      </g>
     </g>
    </g>
    <g id="ytick_2">
     <g id="line2d_8">
      <path d="M 81 322.08359 
L 583.2 322.08359 
" clip-path="url(#p35a8b7d916)" style="fill: none; stroke: #ffffff; stroke-linecap: round"/>
     </g>
     <g id="text_9">
      <!-- 0.4 -->
      <g style="fill: #262626" transform="translate(49.652 326.807746) scale(0.132 -0.132)">
       <use xlink:href="#ArialMT-30"/>
       <use xlink:href="#ArialMT-2e" x="55.615234"/>
       <use xlink:href="#ArialMT-34" x="83.398438"/>
      </g>
     </g>
    </g>
    <g id="ytick_3">
     <g id="line2d_9">
      <path d="M 81 275.360385 
L 583.2 275.360385 
" clip-path="url(#p35a8b7d916)" style="fill: none; stroke: #ffffff; stroke-linecap: round"/>
     </g>
     <g id="text_10">
      <!-- 0.6 -->
      <g style="fill: #262626" transform="translate(49.652 280.084541) scale(0.132 -0.132)">
       <use xlink:href="#ArialMT-30"/>
       <use xlink:href="#ArialMT-2e" x="55.615234"/>
       <use xlink:href="#ArialMT-36" x="83.398438"/>
      </g>
     </g>
    </g>
    <g id="ytick_4">
     <g id="line2d_10">
      <path d="M 81 228.637179 
L 583.2 228.637179 
" clip-path="url(#p35a8b7d916)" style="fill: none; stroke: #ffffff; stroke-linecap: round"/>
     </g>
     <g id="text_11">
      <!-- 0.8 -->
      <g style="fill: #262626" transform="translate(49.652 233.361336) scale(0.132 -0.132)">
       <use xlink:href="#ArialMT-30"/>
       <use xlink:href="#ArialMT-2e" x="55.615234"/>
       <use xlink:href="#ArialMT-38" x="83.398438"/>
      </g>
     </g>
    </g>
    <g id="ytick_5">
     <g id="line2d_11">
      <path d="M 81 181.913974 
L 583.2 181.913974 
" clip-path="url(#p35a8b7d916)" style="fill: none; stroke: #ffffff; stroke-linecap: round"/>
     </g>
     <g id="text_12">
      <!-- 1.0 -->
      <g style="fill: #262626" transform="translate(49.652 186.638131) scale(0.132 -0.132)">
       <use xlink:href="#ArialMT-31"/>
       <use xlink:href="#ArialMT-2e" x="55.615234"/>
       <use xlink:href="#ArialMT-30" x="83.398438"/>
      </g>
     </g>
    </g>
    <g id="ytick_6">
     <g id="line2d_12">
      <path d="M 81 65.105962 
L 583.2 65.105962 
" clip-path="url(#p35a8b7d916)" style="fill: none; stroke: #ffffff; stroke-linecap: round"/>
     </g>
     <g id="text_13">
      <!-- 1.5 -->
      <g style="fill: #262626" transform="translate(49.652 69.830118) scale(0.132 -0.132)">
       <defs>
        <path id="ArialMT-35" d="M 266 1200 
L 856 1250 
Q 922 819 1161 601 
Q 1400 384 1738 384 
Q 2144 384 2425 690 
Q 2706 997 2706 1503 
Q 2706 1984 2436 2262 
Q 2166 2541 1728 2541 
Q 1456 2541 1237 2417 
Q 1019 2294 894 2097 
L 366 2166 
L 809 4519 
L 3088 4519 
L 3088 3981 
L 1259 3981 
L 1013 2750 
Q 1425 3038 1878 3038 
Q 2478 3038 2890 2622 
Q 3303 2206 3303 1553 
Q 3303 931 2941 478 
Q 2500 -78 1738 -78 
Q 1113 -78 717 272 
Q 322 622 266 1200 
z
" transform="scale(0.015625)"/>
       </defs>
       <use xlink:href="#ArialMT-31"/>
       <use xlink:href="#ArialMT-2e" x="55.615234"/>
       <use xlink:href="#ArialMT-35" x="83.398438"/>
      </g>
     </g>
    </g>
    <g id="text_14">
     <!-- evaluate return -->
     <g style="fill: #262626" transform="translate(42.79 293.45625) rotate(-90) scale(0.144 -0.144)">
      <defs>
       <path id="ArialMT-76" d="M 1344 0 
L 81 3319 
L 675 3319 
L 1388 1331 
Q 1503 1009 1600 663 
Q 1675 925 1809 1294 
L 2547 3319 
L 3125 3319 
L 1869 0 
L 1344 0 
z
" transform="scale(0.015625)"/>
       <path id="ArialMT-61" d="M 2588 409 
Q 2275 144 1986 34 
Q 1697 -75 1366 -75 
Q 819 -75 525 192 
Q 231 459 231 875 
Q 231 1119 342 1320 
Q 453 1522 633 1644 
Q 813 1766 1038 1828 
Q 1203 1872 1538 1913 
Q 2219 1994 2541 2106 
Q 2544 2222 2544 2253 
Q 2544 2597 2384 2738 
Q 2169 2928 1744 2928 
Q 1347 2928 1158 2789 
Q 969 2650 878 2297 
L 328 2372 
Q 403 2725 575 2942 
Q 747 3159 1072 3276 
Q 1397 3394 1825 3394 
Q 2250 3394 2515 3294 
Q 2781 3194 2906 3042 
Q 3031 2891 3081 2659 
Q 3109 2516 3109 2141 
L 3109 1391 
Q 3109 606 3145 398 
Q 3181 191 3288 0 
L 2700 0 
Q 2613 175 2588 409 
z
M 2541 1666 
Q 2234 1541 1622 1453 
Q 1275 1403 1131 1340 
Q 988 1278 909 1158 
Q 831 1038 831 891 
Q 831 666 1001 516 
Q 1172 366 1500 366 
Q 1825 366 2078 508 
Q 2331 650 2450 897 
Q 2541 1088 2541 1459 
L 2541 1666 
z
" transform="scale(0.015625)"/>
       <path id="ArialMT-6c" d="M 409 0 
L 409 4581 
L 972 4581 
L 972 0 
L 409 0 
z
" transform="scale(0.015625)"/>
       <path id="ArialMT-75" d="M 2597 0 
L 2597 488 
Q 2209 -75 1544 -75 
Q 1250 -75 995 37 
Q 741 150 617 320 
Q 494 491 444 738 
Q 409 903 409 1263 
L 409 3319 
L 972 3319 
L 972 1478 
Q 972 1038 1006 884 
Q 1059 663 1231 536 
Q 1403 409 1656 409 
Q 1909 409 2131 539 
Q 2353 669 2445 892 
Q 2538 1116 2538 1541 
L 2538 3319 
L 3100 3319 
L 3100 0 
L 2597 0 
z
" transform="scale(0.015625)"/>
       <path id="ArialMT-20" transform="scale(0.015625)"/>
       <path id="ArialMT-72" d="M 416 0 
L 416 3319 
L 922 3319 
L 922 2816 
Q 1116 3169 1280 3281 
Q 1444 3394 1641 3394 
Q 1925 3394 2219 3213 
L 2025 2691 
Q 1819 2813 1613 2813 
Q 1428 2813 1281 2702 
Q 1134 2591 1072 2394 
Q 978 2094 978 1738 
L 978 0 
L 416 0 
z
" transform="scale(0.015625)"/>
       <path id="ArialMT-6e" d="M 422 0 
L 422 3319 
L 928 3319 
L 928 2847 
Q 1294 3394 1984 3394 
Q 2284 3394 2536 3286 
Q 2788 3178 2913 3003 
Q 3038 2828 3088 2588 
Q 3119 2431 3119 2041 
L 3119 0 
L 2556 0 
L 2556 2019 
Q 2556 2363 2490 2533 
Q 2425 2703 2258 2804 
Q 2091 2906 1866 2906 
Q 1506 2906 1245 2678 
Q 984 2450 984 1813 
L 984 0 
L 422 0 
z
" transform="scale(0.015625)"/>
      </defs>
      <use xlink:href="#ArialMT-65"/>
      <use xlink:href="#ArialMT-76" x="55.615234"/>
      <use xlink:href="#ArialMT-61" x="105.615234"/>
      <use xlink:href="#ArialMT-6c" x="161.230469"/>
      <use xlink:href="#ArialMT-75" x="183.447266"/>
      <use xlink:href="#ArialMT-61" x="239.0625"/>
      <use xlink:href="#ArialMT-74" x="294.677734"/>
      <use xlink:href="#ArialMT-65" x="322.460938"/>
      <use xlink:href="#ArialMT-20" x="378.076172"/>
      <use xlink:href="#ArialMT-72" x="405.859375"/>
      <use xlink:href="#ArialMT-65" x="439.160156"/>
      <use xlink:href="#ArialMT-74" x="494.775391"/>
      <use xlink:href="#ArialMT-75" x="522.558594"/>
      <use xlink:href="#ArialMT-72" x="578.173828"/>
      <use xlink:href="#ArialMT-6e" x="611.474609"/>
     </g>
    </g>
   </g>
   <g id="PolyCollection_1">
    <defs>
     <path id="mf647981411" d="M 103.827273 -70.47 
L 103.827273 -70.47 
L 115.533566 -70.47 
L 127.23986 -70.47 
L 138.946154 -70.47 
L 150.652448 -70.47 
L 162.358741 -70.47 
L 174.065035 -70.47 
L 185.771329 -70.47 
L 197.477622 -70.47 
L 209.183916 -70.47 
L 220.89021 -74.939075 
L 232.596503 -74.939075 
L 244.302797 -74.939075 
L 256.009091 -74.939075 
L 267.715385 -74.939075 
L 279.421678 -74.939075 
L 291.127972 -80.779475 
L 302.834266 -80.779475 
L 314.540559 -87.172378 
L 326.246853 -87.172378 
L 337.953147 -84.062559 
L 349.659441 -85.761629 
L 361.365734 -87.946147 
L 373.072028 -90.858839 
L 373.072028 -105.512404 
L 373.072028 -105.512404 
L 361.365734 -105.512404 
L 349.659441 -128.574978 
L 337.953147 -128.574978 
L 326.246853 -147.962772 
L 314.540559 -136.281971 
L 302.834266 -124.601169 
L 291.127972 -112.920368 
L 279.421678 -112.920368 
L 267.715385 -118.760769 
L 256.009091 -118.760769 
L 244.302797 -118.760769 
L 232.596503 -95.698195 
L 220.89021 -95.698195 
L 209.183916 -76.310401 
L 197.477622 -76.310401 
L 185.771329 -76.310401 
L 174.065035 -76.310401 
L 162.358741 -76.310401 
L 150.652448 -70.47 
L 138.946154 -70.47 
L 127.23986 -70.47 
L 115.533566 -70.47 
L 103.827273 -70.47 
z
" style="stroke: #2455a4; stroke-opacity: 0.2"/>
    </defs>
    <g clip-path="url(#p35a8b7d916)">
     <use xlink:href="#mf647981411" x="0" y="486" style="fill: #2455a4; fill-opacity: 0.2; stroke: #2455a4; stroke-opacity: 0.2"/>
    </g>
   </g>
   <g id="PolyCollection_2">
    <defs>
     <path id="m412f8d672a" d="M 103.827273 -165.621807 
L 103.827273 -70.47 
L 115.533566 -70.47 
L 127.23986 -70.47 
L 138.946154 -70.47 
L 150.652448 -70.47 
L 162.358741 -70.47 
L 174.065035 -70.47 
L 185.771329 -70.47 
L 197.477622 -70.47 
L 209.183916 -70.47 
L 220.89021 -70.47 
L 232.596503 -70.47 
L 244.302797 -70.47 
L 256.009091 -70.47 
L 267.715385 -70.47 
L 279.421678 -70.47 
L 291.127972 -70.47 
L 302.834266 -70.47 
L 314.540559 -70.47 
L 326.246853 -70.47 
L 337.953147 -82.150801 
L 349.659441 -82.150801 
L 361.365734 -82.150801 
L 373.072028 -93.831603 
L 384.778322 -93.831603 
L 396.484615 -93.831603 
L 408.190909 -93.831603 
L 419.897203 -93.831603 
L 431.603497 -93.831603 
L 443.30979 -93.831603 
L 455.016084 -82.150801 
L 466.722378 -82.150801 
L 478.428671 -82.150801 
L 490.134965 -82.150801 
L 501.841259 -82.150801 
L 513.547552 -82.150801 
L 525.253846 -83.448668 
L 536.96014 -85.071002 
L 548.666434 -87.156859 
L 560.372727 -89.938002 
L 560.372727 -128.874006 
L 560.372727 -128.874006 
L 548.666434 -120.530577 
L 536.96014 -128.874006 
L 525.253846 -135.36334 
L 513.547552 -128.874006 
L 501.841259 -128.874006 
L 490.134965 -128.874006 
L 478.428671 -128.874006 
L 466.722378 -117.193205 
L 455.016084 -105.512404 
L 443.30979 -117.193205 
L 431.603497 -117.193205 
L 419.897203 -105.512404 
L 408.190909 -93.831603 
L 396.484615 -93.831603 
L 384.778322 -93.831603 
L 373.072028 -93.831603 
L 361.365734 -93.831603 
L 349.659441 -93.831603 
L 337.953147 -93.831603 
L 326.246853 -82.150801 
L 314.540559 -82.150801 
L 302.834266 -82.150801 
L 291.127972 -82.150801 
L 279.421678 -82.150801 
L 267.715385 -82.150801 
L 256.009091 -82.150801 
L 244.302797 -70.47 
L 232.596503 -70.47 
L 220.89021 -70.47 
L 209.183916 -70.47 
L 197.477622 -82.150801 
L 185.771329 -99.982713 
L 174.065035 -118.045904 
L 162.358741 -118.045904 
L 150.652448 -123.332115 
L 138.946154 -129.93988 
L 127.23986 -138.435577 
L 115.533566 -149.763173 
L 103.827273 -165.621807 
z
" style="stroke: #41b7ac; stroke-opacity: 0.2"/>
    </defs>
    <g clip-path="url(#p35a8b7d916)">
     <use xlink:href="#m412f8d672a" x="0" y="486" style="fill: #41b7ac; fill-opacity: 0.2; stroke: #41b7ac; stroke-opacity: 0.2"/>
    </g>
   </g>
   <g id="PolyCollection_3">
    <defs>
     <path id="ma826ec733a" d="M 103.827273 -93.831603 
L 103.827273 -70.47 
L 115.533566 -80.204001 
L 127.23986 -92.001054 
L 138.946154 -104.503475 
L 150.652448 -117.778543 
L 162.358741 -129.91243 
L 174.065035 -147.082039 
L 185.771329 -166.007274 
L 197.477622 -186.635569 
L 209.183916 -208.094369 
L 220.89021 -229.910601 
L 232.596503 -244.235936 
L 244.302797 -252.372782 
L 256.009091 -261.645002 
L 267.715385 -275.975009 
L 279.421678 -281.410086 
L 291.127972 -286.319527 
L 302.834266 -289.746674 
L 314.540559 -291.428709 
L 326.246853 -292.322291 
L 337.953147 -292.732287 
L 349.659441 -292.091011 
L 361.365734 -292.154087 
L 373.072028 -292.301265 
L 384.778322 -292.343316 
L 396.484615 -292.62716 
L 408.190909 -292.66921 
L 419.897203 -292.62716 
L 431.603497 -292.648185 
L 443.30979 -292.458956 
L 455.016084 -292.311778 
L 466.722378 -292.290753 
L 478.428671 -292.206651 
L 490.134965 -292.963567 
L 501.841259 -293.089719 
L 513.547552 -293.110745 
L 525.253846 -293.386412 
L 536.96014 -293.36305 
L 548.666434 -293.302977 
L 560.372727 -293.50322 
L 560.372727 -303.062009 
L 560.372727 -303.062009 
L 548.666434 -301.496225 
L 536.96014 -300.50586 
L 525.253846 -299.758938 
L 513.547552 -299.140374 
L 501.841259 -293.289461 
L 490.134965 -293.184334 
L 478.428671 -293.24741 
L 466.722378 -293.226385 
L 455.016084 -292.427418 
L 443.30979 -292.553571 
L 431.603497 -292.732287 
L 419.897203 -292.753312 
L 408.190909 -292.753312 
L 396.484615 -292.732287 
L 384.778322 -292.585109 
L 373.072028 -292.637672 
L 361.365734 -293.24741 
L 349.659441 -293.13177 
L 337.953147 -292.837414 
L 326.246853 -292.416905 
L 314.540559 -291.523324 
L 302.834266 -290.566666 
L 291.127972 -288.411558 
L 279.421678 -283.470579 
L 267.715385 -276.090649 
L 256.009091 -269.141741 
L 244.302797 -259.13363 
L 232.596503 -246.128226 
L 220.89021 -236.303504 
L 209.183916 -225.947305 
L 197.477622 -204.499018 
L 185.771329 -183.12432 
L 174.065035 -162.948072 
L 162.358741 -145.704873 
L 150.652448 -137.953883 
L 138.946154 -136.6505 
L 127.23986 -127.629167 
L 115.533566 -113.67339 
L 103.827273 -93.831603 
z
" style="stroke: #ffa510; stroke-opacity: 0.2"/>
    </defs>
    <g clip-path="url(#p35a8b7d916)">
     <use xlink:href="#ma826ec733a" x="0" y="486" style="fill: #ffa510; fill-opacity: 0.2; stroke: #ffa510; stroke-opacity: 0.2"/>
    </g>
   </g>
   <g id="PolyCollection_4">
    <defs>
     <path id="mf90b751907" d="M 103.827273 -86.643237 
L 103.827273 -70.47 
L 115.533566 -70.47 
L 127.23986 -70.47 
L 138.946154 -70.47 
L 150.652448 -70.47 
L 162.358741 -70.47 
L 174.065035 -70.47 
L 185.771329 -70.47 
L 197.477622 -80.554036 
L 209.183916 -80.554036 
L 220.89021 -80.554036 
L 232.596503 -80.554036 
L 244.302797 -80.554036 
L 256.009091 -104.457627 
L 267.715385 -116.138429 
L 279.421678 -116.138429 
L 291.127972 -127.81923 
L 302.834266 -139.500031 
L 314.540559 -141.096797 
L 326.246853 -152.777598 
L 337.953147 -164.458399 
L 349.659441 -164.458399 
L 361.365734 -198.40748 
L 373.072028 -206.791959 
L 384.778322 -229.070752 
L 396.484615 -263.030345 
L 408.190909 -285.256574 
L 419.897203 -307.556392 
L 431.603497 -329.719544 
L 443.30979 -352.116312 
L 455.016084 -374.479207 
L 466.722378 -408.386236 
L 478.428671 -408.417775 
L 490.134965 -410.173399 
L 501.841259 -410.257501 
L 513.547552 -410.341603 
L 525.253846 -410.430636 
L 536.96014 -410.449942 
L 548.666434 -410.531499 
L 560.372727 -410.468923 
L 560.372727 -410.574051 
L 560.372727 -410.574051 
L 548.666434 -410.67 
L 536.96014 -410.460163 
L 525.253846 -410.439721 
L 513.547552 -410.433881 
L 501.841259 -410.381317 
L 490.134965 -410.328754 
L 478.428671 -410.297216 
L 466.722378 -410.339266 
L 455.016084 -410.412856 
L 443.30979 -410.370805 
L 431.603497 -409.224918 
L 419.897203 -386.956638 
L 408.190909 -371.554334 
L 396.484615 -337.563202 
L 384.778322 -315.252872 
L 373.072028 -303.741442 
L 361.365734 -292.186793 
L 349.659441 -273.109709 
L 337.953147 -239.12909 
L 326.246853 -216.818759 
L 314.540559 -183.920951 
L 302.834266 -172.240149 
L 291.127972 -153.661835 
L 279.421678 -153.661835 
L 267.715385 -141.981034 
L 256.009091 -119.501331 
L 244.302797 -97.064848 
L 232.596503 -82.150801 
L 220.89021 -96.597616 
L 209.183916 -84.916815 
L 197.477622 -84.916815 
L 185.771329 -84.916815 
L 174.065035 -93.003434 
L 162.358741 -93.003434 
L 150.652448 -95.507149 
L 138.946154 -98.636792 
L 127.23986 -102.66062 
L 115.533566 -108.025723 
L 103.827273 -86.643237 
z
" style="stroke: #f74d4d; stroke-opacity: 0.2"/>
    </defs>
    <g clip-path="url(#p35a8b7d916)">
     <use xlink:href="#mf90b751907" x="0" y="486" style="fill: #f74d4d; fill-opacity: 0.2; stroke: #f74d4d; stroke-opacity: 0.2"/>
    </g>
   </g>
   <g id="line2d_13">
    <path d="M 103.827273 415.53 
L 115.533566 415.53 
L 127.23986 415.53 
L 138.946154 415.53 
L 150.652448 415.53 
L 162.358741 412.6098 
L 174.065035 412.6098 
L 185.771329 412.6098 
L 197.477622 412.6098 
L 209.183916 412.6098 
L 220.89021 400.681365 
L 232.596503 400.681365 
L 244.302797 389.150078 
L 256.009091 389.150078 
L 267.715385 389.150078 
L 279.421678 392.070279 
L 291.127972 389.150078 
L 302.834266 383.309678 
L 314.540559 374.272826 
L 326.246853 368.432425 
L 337.953147 379.681232 
L 349.659441 378.831697 
L 361.365734 389.270724 
L 373.072028 387.814379 
L 384.778322 380.487596 
L 396.484615 380.487596 
L 408.190909 380.487596 
L 419.897203 392.168397 
L 431.603497 403.849199 
L 443.30979 415.53 
L 455.016084 415.53 
L 466.722378 415.53 
L 478.428671 415.53 
L 490.134965 415.53 
L 501.841259 415.53 
L 513.547552 415.53 
L 525.253846 415.53 
L 536.96014 415.53 
L 548.666434 415.53 
L 560.372727 415.53 
" clip-path="url(#p35a8b7d916)" style="fill: none; stroke: #2455a4; stroke-width: 2.5; stroke-linecap: round"/>
   </g>
   <g id="line2d_14">
    <path d="M 103.827273 367.954096 
L 115.533566 375.883414 
L 127.23986 381.547212 
L 138.946154 385.79506 
L 150.652448 389.098942 
L 162.358741 391.742048 
L 174.065035 391.742048 
L 185.771329 400.773644 
L 197.477622 409.689599 
L 209.183916 415.53 
L 220.89021 415.53 
L 232.596503 415.53 
L 244.302797 415.53 
L 256.009091 409.689599 
L 267.715385 409.689599 
L 279.421678 409.689599 
L 291.127972 409.689599 
L 302.834266 409.689599 
L 314.540559 409.689599 
L 326.246853 409.689599 
L 337.953147 398.008798 
L 349.659441 398.008798 
L 361.365734 398.008798 
L 373.072028 392.168397 
L 384.778322 392.168397 
L 396.484615 392.168397 
L 408.190909 392.168397 
L 419.897203 386.327997 
L 431.603497 380.487596 
L 443.30979 380.487596 
L 455.016084 392.168397 
L 466.722378 386.327997 
L 478.428671 380.487596 
L 490.134965 380.487596 
L 501.841259 380.487596 
L 513.547552 380.487596 
L 525.253846 376.593996 
L 536.96014 379.027496 
L 548.666434 382.156282 
L 560.372727 376.593996 
" clip-path="url(#p35a8b7d916)" style="fill: none; stroke-dasharray: 10,3.75; stroke-dashoffset: 0; stroke: #41b7ac; stroke-width: 2.5"/>
   </g>
   <g id="line2d_15">
    <path d="M 103.827273 403.849199 
L 115.533566 389.061304 
L 127.23986 376.18489 
L 138.946154 365.423013 
L 150.652448 358.133787 
L 162.358741 348.191349 
L 174.065035 330.984944 
L 185.771329 311.434203 
L 197.477622 290.432707 
L 209.183916 268.979163 
L 220.89021 252.892947 
L 232.596503 240.817919 
L 244.302797 230.246794 
L 256.009091 220.606629 
L 267.715385 209.967171 
L 279.421678 203.559667 
L 291.127972 198.634457 
L 302.834266 195.84333 
L 314.540559 194.523983 
L 326.246853 193.630402 
L 337.953147 193.21515 
L 349.659441 193.388609 
L 361.365734 193.299251 
L 373.072028 193.530531 
L 384.778322 193.535788 
L 396.484615 193.320277 
L 408.190909 193.288739 
L 419.897203 193.309764 
L 431.603497 193.309764 
L 443.30979 193.493737 
L 455.016084 193.630402 
L 466.722378 193.241431 
L 478.428671 193.27297 
L 490.134965 192.92605 
L 501.841259 192.81041 
L 513.547552 189.87444 
L 525.253846 189.427325 
L 536.96014 189.065545 
L 548.666434 188.600399 
L 560.372727 187.717386 
" clip-path="url(#p35a8b7d916)" style="fill: none; stroke-dasharray: 2.5,2.5; stroke-dashoffset: 0; stroke: #ffa510; stroke-width: 2.5"/>
   </g>
   <g id="line2d_16">
    <path d="M 103.827273 407.443381 
L 115.533566 396.752139 
L 127.23986 399.43469 
L 138.946154 401.446604 
L 150.652448 403.011426 
L 162.358741 404.263283 
L 174.065035 404.263283 
L 185.771329 408.306592 
L 197.477622 403.264575 
L 209.183916 403.264575 
L 220.89021 397.424174 
L 232.596503 404.647581 
L 244.302797 397.190558 
L 256.009091 374.020521 
L 267.715385 356.940269 
L 279.421678 351.099868 
L 291.127972 345.259468 
L 302.834266 330.12991 
L 314.540559 323.491126 
L 326.246853 301.201821 
L 337.953147 284.206255 
L 349.659441 267.215946 
L 361.365734 240.702863 
L 373.072028 230.733299 
L 384.778322 213.838188 
L 396.484615 185.703226 
L 408.190909 157.594546 
L 419.897203 138.743485 
L 431.603497 116.527769 
L 443.30979 104.756441 
L 455.016084 93.553969 
L 466.722378 76.637249 
L 478.428671 76.642505 
L 490.134965 75.748924 
L 501.841259 75.680591 
L 513.547552 75.612258 
L 525.253846 75.564821 
L 536.96014 75.544948 
L 548.666434 75.39925 
L 560.372727 75.478513 
" clip-path="url(#p35a8b7d916)" style="fill: none; stroke-dasharray: 7.5,3.125,3.75,3.125; stroke-dashoffset: 0; stroke: #f74d4d; stroke-width: 2.5"/>
   </g>
   <g id="line2d_17"/>
   <g id="line2d_18"/>
   <g id="line2d_19"/>
   <g id="line2d_20"/>
   <g id="patch_3">
    <path d="M 81 432.54 
L 81 58.32 
" style="fill: none; stroke: #ffffff; stroke-width: 1.25; stroke-linejoin: miter; stroke-linecap: square"/>
   </g>
   <g id="patch_4">
    <path d="M 583.2 432.54 
L 583.2 58.32 
" style="fill: none; stroke: #ffffff; stroke-width: 1.25; stroke-linejoin: miter; stroke-linecap: square"/>
   </g>
   <g id="patch_5">
    <path d="M 81 432.54 
L 583.2 432.54 
" style="fill: none; stroke: #ffffff; stroke-width: 1.25; stroke-linejoin: miter; stroke-linecap: square"/>
   </g>
   <g id="patch_6">
    <path d="M 81 58.32 
L 583.2 58.32 
" style="fill: none; stroke: #ffffff; stroke-width: 1.25; stroke-linejoin: miter; stroke-linecap: square"/>
   </g>
   <g id="text_15">
    <!-- MiniGrid-Apple -->
    <g style="fill: #262626" transform="translate(284.486625 52.32) scale(0.144 -0.144)">
     <defs>
      <path id="ArialMT-69" d="M 425 3934 
L 425 4581 
L 988 4581 
L 988 3934 
L 425 3934 
z
M 425 0 
L 425 3319 
L 988 3319 
L 988 0 
L 425 0 
z
" transform="scale(0.015625)"/>
      <path id="ArialMT-47" d="M 2638 1797 
L 2638 2334 
L 4578 2338 
L 4578 638 
Q 4131 281 3656 101 
Q 3181 -78 2681 -78 
Q 2006 -78 1454 211 
Q 903 500 622 1047 
Q 341 1594 341 2269 
Q 341 2938 620 3517 
Q 900 4097 1425 4378 
Q 1950 4659 2634 4659 
Q 3131 4659 3532 4498 
Q 3934 4338 4162 4050 
Q 4391 3763 4509 3300 
L 3963 3150 
Q 3859 3500 3706 3700 
Q 3553 3900 3268 4020 
Q 2984 4141 2638 4141 
Q 2222 4141 1919 4014 
Q 1616 3888 1430 3681 
Q 1244 3475 1141 3228 
Q 966 2803 966 2306 
Q 966 1694 1177 1281 
Q 1388 869 1791 669 
Q 2194 469 2647 469 
Q 3041 469 3416 620 
Q 3791 772 3984 944 
L 3984 1797 
L 2638 1797 
z
" transform="scale(0.015625)"/>
      <path id="ArialMT-64" d="M 2575 0 
L 2575 419 
Q 2259 -75 1647 -75 
Q 1250 -75 917 144 
Q 584 363 401 755 
Q 219 1147 219 1656 
Q 219 2153 384 2558 
Q 550 2963 881 3178 
Q 1213 3394 1622 3394 
Q 1922 3394 2156 3267 
Q 2391 3141 2538 2938 
L 2538 4581 
L 3097 4581 
L 3097 0 
L 2575 0 
z
M 797 1656 
Q 797 1019 1065 703 
Q 1334 388 1700 388 
Q 2069 388 2326 689 
Q 2584 991 2584 1609 
Q 2584 2291 2321 2609 
Q 2059 2928 1675 2928 
Q 1300 2928 1048 2622 
Q 797 2316 797 1656 
z
" transform="scale(0.015625)"/>
      <path id="ArialMT-2d" d="M 203 1375 
L 203 1941 
L 1931 1941 
L 1931 1375 
L 203 1375 
z
" transform="scale(0.015625)"/>
      <path id="ArialMT-41" d="M -9 0 
L 1750 4581 
L 2403 4581 
L 4278 0 
L 3588 0 
L 3053 1388 
L 1138 1388 
L 634 0 
L -9 0 
z
M 1313 1881 
L 2866 1881 
L 2388 3150 
Q 2169 3728 2063 4100 
Q 1975 3659 1816 3225 
L 1313 1881 
z
" transform="scale(0.015625)"/>
     </defs>
     <use xlink:href="#ArialMT-4d"/>
     <use xlink:href="#ArialMT-69" x="83.300781"/>
     <use xlink:href="#ArialMT-6e" x="105.517578"/>
     <use xlink:href="#ArialMT-69" x="161.132812"/>
     <use xlink:href="#ArialMT-47" x="183.349609"/>
     <use xlink:href="#ArialMT-72" x="261.132812"/>
     <use xlink:href="#ArialMT-69" x="294.433594"/>
     <use xlink:href="#ArialMT-64" x="316.650391"/>
     <use xlink:href="#ArialMT-2d" x="372.265625"/>
     <use xlink:href="#ArialMT-41" x="405.566406"/>
     <use xlink:href="#ArialMT-70" x="472.265625"/>
     <use xlink:href="#ArialMT-70" x="527.880859"/>
     <use xlink:href="#ArialMT-6c" x="583.496094"/>
     <use xlink:href="#ArialMT-65" x="605.712891"/>
    </g>
   </g>
   <g id="legend_1">
    <g id="text_16">
     <!-- algos -->
     <g style="fill: #262626" transform="translate(126.784594 80.50725) scale(0.144 -0.144)">
      <defs>
       <path id="ArialMT-67" d="M 319 -275 
L 866 -356 
Q 900 -609 1056 -725 
Q 1266 -881 1628 -881 
Q 2019 -881 2231 -725 
Q 2444 -569 2519 -288 
Q 2563 -116 2559 434 
Q 2191 0 1641 0 
Q 956 0 581 494 
Q 206 988 206 1678 
Q 206 2153 378 2554 
Q 550 2956 876 3175 
Q 1203 3394 1644 3394 
Q 2231 3394 2613 2919 
L 2613 3319 
L 3131 3319 
L 3131 450 
Q 3131 -325 2973 -648 
Q 2816 -972 2473 -1159 
Q 2131 -1347 1631 -1347 
Q 1038 -1347 672 -1080 
Q 306 -813 319 -275 
z
M 784 1719 
Q 784 1066 1043 766 
Q 1303 466 1694 466 
Q 2081 466 2343 764 
Q 2606 1063 2606 1700 
Q 2606 2309 2336 2618 
Q 2066 2928 1684 2928 
Q 1309 2928 1046 2623 
Q 784 2319 784 1719 
z
" transform="scale(0.015625)"/>
       <path id="ArialMT-6f" d="M 213 1659 
Q 213 2581 725 3025 
Q 1153 3394 1769 3394 
Q 2453 3394 2887 2945 
Q 3322 2497 3322 1706 
Q 3322 1066 3130 698 
Q 2938 331 2570 128 
Q 2203 -75 1769 -75 
Q 1072 -75 642 372 
Q 213 819 213 1659 
z
M 791 1659 
Q 791 1022 1069 705 
Q 1347 388 1769 388 
Q 2188 388 2466 706 
Q 2744 1025 2744 1678 
Q 2744 2294 2464 2611 
Q 2184 2928 1769 2928 
Q 1347 2928 1069 2612 
Q 791 2297 791 1659 
z
" transform="scale(0.015625)"/>
      </defs>
      <use xlink:href="#ArialMT-61"/>
      <use xlink:href="#ArialMT-6c" x="55.615234"/>
      <use xlink:href="#ArialMT-67" x="77.832031"/>
      <use xlink:href="#ArialMT-6f" x="133.447266"/>
      <use xlink:href="#ArialMT-73" x="189.0625"/>
     </g>
    </g>
    <g id="line2d_21">
     <path d="M 92.88 94.966313 
L 106.08 94.966313 
L 119.28 94.966313 
" style="fill: none; stroke: #2455a4; stroke-width: 1.5; stroke-linecap: round"/>
    </g>
    <g id="text_17">
     <!-- DQN -->
     <g style="fill: #262626" transform="translate(129.84 99.586313) scale(0.132 -0.132)">
      <defs>
       <path id="ArialMT-44" d="M 494 0 
L 494 4581 
L 2072 4581 
Q 2606 4581 2888 4516 
Q 3281 4425 3559 4188 
Q 3922 3881 4101 3404 
Q 4281 2928 4281 2316 
Q 4281 1794 4159 1391 
Q 4038 988 3847 723 
Q 3656 459 3429 307 
Q 3203 156 2883 78 
Q 2563 0 2147 0 
L 494 0 
z
M 1100 541 
L 2078 541 
Q 2531 541 2789 625 
Q 3047 709 3200 863 
Q 3416 1078 3536 1442 
Q 3656 1806 3656 2325 
Q 3656 3044 3420 3430 
Q 3184 3816 2847 3947 
Q 2603 4041 2063 4041 
L 1100 4041 
L 1100 541 
z
" transform="scale(0.015625)"/>
       <path id="ArialMT-51" d="M 3966 491 
Q 4388 200 4744 66 
L 4566 -356 
Q 4072 -178 3581 206 
Q 3072 -78 2456 -78 
Q 1834 -78 1328 222 
Q 822 522 548 1065 
Q 275 1609 275 2291 
Q 275 2969 550 3525 
Q 825 4081 1333 4372 
Q 1841 4663 2469 4663 
Q 3103 4663 3612 4361 
Q 4122 4059 4389 3517 
Q 4656 2975 4656 2294 
Q 4656 1728 4484 1276 
Q 4313 825 3966 491 
z
M 2631 1266 
Q 3156 1119 3497 828 
Q 4031 1316 4031 2294 
Q 4031 2850 3842 3265 
Q 3653 3681 3289 3911 
Q 2925 4141 2472 4141 
Q 1794 4141 1347 3677 
Q 900 3213 900 2291 
Q 900 1397 1342 919 
Q 1784 441 2472 441 
Q 2797 441 3084 563 
Q 2800 747 2484 825 
L 2631 1266 
z
" transform="scale(0.015625)"/>
       <path id="ArialMT-4e" d="M 488 0 
L 488 4581 
L 1109 4581 
L 3516 984 
L 3516 4581 
L 4097 4581 
L 4097 0 
L 3475 0 
L 1069 3600 
L 1069 0 
L 488 0 
z
" transform="scale(0.015625)"/>
      </defs>
      <use xlink:href="#ArialMT-44"/>
      <use xlink:href="#ArialMT-51" x="72.216797"/>
      <use xlink:href="#ArialMT-4e" x="150"/>
     </g>
    </g>
    <g id="line2d_22">
     <path d="M 92.88 113.80725 
L 106.08 113.80725 
L 119.28 113.80725 
" style="fill: none; stroke-dasharray: 6,2.25; stroke-dashoffset: 0; stroke: #41b7ac; stroke-width: 1.5"/>
    </g>
    <g id="text_18">
     <!-- DQN_RND -->
     <g style="fill: #262626" transform="translate(129.84 118.42725) scale(0.132 -0.132)">
      <defs>
       <path id="ArialMT-5f" d="M -97 -1272 
L -97 -866 
L 3631 -866 
L 3631 -1272 
L -97 -1272 
z
" transform="scale(0.015625)"/>
       <path id="ArialMT-52" d="M 503 0 
L 503 4581 
L 2534 4581 
Q 3147 4581 3465 4457 
Q 3784 4334 3975 4021 
Q 4166 3709 4166 3331 
Q 4166 2844 3850 2509 
Q 3534 2175 2875 2084 
Q 3116 1969 3241 1856 
Q 3506 1613 3744 1247 
L 4541 0 
L 3778 0 
L 3172 953 
Q 2906 1366 2734 1584 
Q 2563 1803 2427 1890 
Q 2291 1978 2150 2013 
Q 2047 2034 1813 2034 
L 1109 2034 
L 1109 0 
L 503 0 
z
M 1109 2559 
L 2413 2559 
Q 2828 2559 3062 2645 
Q 3297 2731 3419 2920 
Q 3541 3109 3541 3331 
Q 3541 3656 3305 3865 
Q 3069 4075 2559 4075 
L 1109 4075 
L 1109 2559 
z
" transform="scale(0.015625)"/>
      </defs>
      <use xlink:href="#ArialMT-44"/>
      <use xlink:href="#ArialMT-51" x="72.216797"/>
      <use xlink:href="#ArialMT-4e" x="150"/>
      <use xlink:href="#ArialMT-5f" x="222.216797"/>
      <use xlink:href="#ArialMT-52" x="277.832031"/>
      <use xlink:href="#ArialMT-4e" x="350.048828"/>
      <use xlink:href="#ArialMT-44" x="422.265625"/>
     </g>
    </g>
    <g id="line2d_23">
     <path d="M 92.88 132.648188 
L 106.08 132.648188 
L 119.28 132.648188 
" style="fill: none; stroke-dasharray: 1.5,1.5; stroke-dashoffset: 0; stroke: #ffa510; stroke-width: 1.5"/>
    </g>
    <g id="text_19">
     <!-- PPO_RND -->
     <g style="fill: #262626" transform="translate(129.84 137.268188) scale(0.132 -0.132)">
      <defs>
       <path id="ArialMT-50" d="M 494 0 
L 494 4581 
L 2222 4581 
Q 2678 4581 2919 4538 
Q 3256 4481 3484 4323 
Q 3713 4166 3852 3881 
Q 3991 3597 3991 3256 
Q 3991 2672 3619 2267 
Q 3247 1863 2275 1863 
L 1100 1863 
L 1100 0 
L 494 0 
z
M 1100 2403 
L 2284 2403 
Q 2872 2403 3119 2622 
Q 3366 2841 3366 3238 
Q 3366 3525 3220 3729 
Q 3075 3934 2838 4000 
Q 2684 4041 2272 4041 
L 1100 4041 
L 1100 2403 
z
" transform="scale(0.015625)"/>
       <path id="ArialMT-4f" d="M 309 2231 
Q 309 3372 921 4017 
Q 1534 4663 2503 4663 
Q 3138 4663 3647 4359 
Q 4156 4056 4423 3514 
Q 4691 2972 4691 2284 
Q 4691 1588 4409 1038 
Q 4128 488 3612 205 
Q 3097 -78 2500 -78 
Q 1853 -78 1343 234 
Q 834 547 571 1087 
Q 309 1628 309 2231 
z
M 934 2222 
Q 934 1394 1379 917 
Q 1825 441 2497 441 
Q 3181 441 3623 922 
Q 4066 1403 4066 2288 
Q 4066 2847 3877 3264 
Q 3688 3681 3323 3911 
Q 2959 4141 2506 4141 
Q 1863 4141 1398 3698 
Q 934 3256 934 2222 
z
" transform="scale(0.015625)"/>
      </defs>
      <use xlink:href="#ArialMT-50"/>
      <use xlink:href="#ArialMT-50" x="66.699219"/>
      <use xlink:href="#ArialMT-4f" x="133.398438"/>
      <use xlink:href="#ArialMT-5f" x="211.181641"/>
      <use xlink:href="#ArialMT-52" x="266.796875"/>
      <use xlink:href="#ArialMT-4e" x="339.013672"/>
      <use xlink:href="#ArialMT-44" x="411.230469"/>
     </g>
    </g>
    <g id="line2d_24">
     <path d="M 92.88 151.489125 
L 106.08 151.489125 
L 119.28 151.489125 
" style="fill: none; stroke-dasharray: 4.5,1.875,2.25,1.875; stroke-dashoffset: 0; stroke: #f74d4d; stroke-width: 1.5"/>
    </g>
    <g id="text_20">
     <!-- IDE(OUR) -->
     <g style="fill: #262626" transform="translate(129.84 156.109125) scale(0.132 -0.132)">
      <defs>
       <path id="ArialMT-49" d="M 597 0 
L 597 4581 
L 1203 4581 
L 1203 0 
L 597 0 
z
" transform="scale(0.015625)"/>
       <path id="ArialMT-45" d="M 506 0 
L 506 4581 
L 3819 4581 
L 3819 4041 
L 1113 4041 
L 1113 2638 
L 3647 2638 
L 3647 2100 
L 1113 2100 
L 1113 541 
L 3925 541 
L 3925 0 
L 506 0 
z
" transform="scale(0.015625)"/>
       <path id="ArialMT-28" d="M 1497 -1347 
Q 1031 -759 709 28 
Q 388 816 388 1659 
Q 388 2403 628 3084 
Q 909 3875 1497 4659 
L 1900 4659 
Q 1522 4009 1400 3731 
Q 1209 3300 1100 2831 
Q 966 2247 966 1656 
Q 966 153 1900 -1347 
L 1497 -1347 
z
" transform="scale(0.015625)"/>
       <path id="ArialMT-55" d="M 3500 4581 
L 4106 4581 
L 4106 1934 
Q 4106 1244 3950 837 
Q 3794 431 3386 176 
Q 2978 -78 2316 -78 
Q 1672 -78 1262 144 
Q 853 366 678 786 
Q 503 1206 503 1934 
L 503 4581 
L 1109 4581 
L 1109 1938 
Q 1109 1341 1220 1058 
Q 1331 775 1601 622 
Q 1872 469 2263 469 
Q 2931 469 3215 772 
Q 3500 1075 3500 1938 
L 3500 4581 
z
" transform="scale(0.015625)"/>
       <path id="ArialMT-29" d="M 791 -1347 
L 388 -1347 
Q 1322 153 1322 1656 
Q 1322 2244 1188 2822 
Q 1081 3291 891 3722 
Q 769 4003 388 4659 
L 791 4659 
Q 1378 3875 1659 3084 
Q 1900 2403 1900 1659 
Q 1900 816 1576 28 
Q 1253 -759 791 -1347 
z
" transform="scale(0.015625)"/>
      </defs>
      <use xlink:href="#ArialMT-49"/>
      <use xlink:href="#ArialMT-44" x="27.783203"/>
      <use xlink:href="#ArialMT-45" x="100"/>
      <use xlink:href="#ArialMT-28" x="166.699219"/>
      <use xlink:href="#ArialMT-4f" x="200"/>
      <use xlink:href="#ArialMT-55" x="277.783203"/>
      <use xlink:href="#ArialMT-52" x="350"/>
      <use xlink:href="#ArialMT-29" x="422.216797"/>
     </g>
    </g>
   </g>
  </g>
 </g>
 <defs>
  <clipPath id="p35a8b7d916">
   <rect x="81" y="58.32" width="502.2" height="374.22"/>
  </clipPath>
 </defs>
</svg>
